<mxfile host="app.diagrams.net" modified="2023-04-23T09:46:42.432Z" agent="Mozilla/5.0 (Windows NT 10.0; Win64; x64) AppleWebKit/537.36 (KHTML, like Gecko) Chrome/112.0.0.0 Safari/537.36" etag="d4dK7Ftcz1ttxhzP4lm6" version="21.2.1" type="device">
  <diagram name="Page-1" id="FbxprSdoA-eNqCiXxPC2">
    <mxGraphModel dx="1500" dy="779" grid="1" gridSize="10" guides="1" tooltips="1" connect="1" arrows="1" fold="1" page="1" pageScale="1" pageWidth="827" pageHeight="1169" math="0" shadow="0">
      <root>
        <mxCell id="0" />
        <mxCell id="1" parent="0" />
        <mxCell id="uP8z7aU9uXZNIY2WTciD-1" value="User Interface" style="rounded=0;whiteSpace=wrap;html=1;" parent="1" vertex="1">
          <mxGeometry x="220" y="30" width="400" height="60" as="geometry" />
        </mxCell>
        <mxCell id="uP8z7aU9uXZNIY2WTciD-2" value="Data Preprocessing" style="rounded=0;whiteSpace=wrap;html=1;" parent="1" vertex="1">
          <mxGeometry x="220" y="380" width="400" height="60" as="geometry" />
        </mxCell>
        <mxCell id="uP8z7aU9uXZNIY2WTciD-3" value="FAST API Gateway" style="rounded=0;whiteSpace=wrap;html=1;" parent="1" vertex="1">
          <mxGeometry x="220" y="130" width="400" height="60" as="geometry" />
        </mxCell>
        <mxCell id="uP8z7aU9uXZNIY2WTciD-4" value="" style="rounded=0;whiteSpace=wrap;html=1;" parent="1" vertex="1">
          <mxGeometry x="220" y="230" width="400" height="110" as="geometry" />
        </mxCell>
        <mxCell id="uP8z7aU9uXZNIY2WTciD-5" value="Content Based Recommendation Engine" style="rounded=0;whiteSpace=wrap;html=1;" parent="1" vertex="1">
          <mxGeometry x="243" y="265" width="166" height="60" as="geometry" />
        </mxCell>
        <mxCell id="uP8z7aU9uXZNIY2WTciD-11" value="Collaborative Filtering Engine" style="rounded=0;whiteSpace=wrap;html=1;" parent="1" vertex="1">
          <mxGeometry x="432" y="265" width="166" height="60" as="geometry" />
        </mxCell>
        <mxCell id="uP8z7aU9uXZNIY2WTciD-12" value="Recommendation Engine" style="text;html=1;strokeColor=none;fillColor=none;align=center;verticalAlign=middle;whiteSpace=wrap;rounded=0;" parent="1" vertex="1">
          <mxGeometry x="339" y="235" width="150" height="30" as="geometry" />
        </mxCell>
        <mxCell id="uP8z7aU9uXZNIY2WTciD-13" value="Data Ingestion" style="rounded=0;whiteSpace=wrap;html=1;" parent="1" vertex="1">
          <mxGeometry x="214" y="480" width="400" height="60" as="geometry" />
        </mxCell>
        <mxCell id="uP8z7aU9uXZNIY2WTciD-15" value="Movies" style="shape=datastore;whiteSpace=wrap;html=1;" parent="1" vertex="1">
          <mxGeometry x="230" y="620" width="70" height="90" as="geometry" />
        </mxCell>
        <mxCell id="uP8z7aU9uXZNIY2WTciD-16" value="Link" style="shape=datastore;whiteSpace=wrap;html=1;" parent="1" vertex="1">
          <mxGeometry x="339" y="620" width="70" height="90" as="geometry" />
        </mxCell>
        <mxCell id="uP8z7aU9uXZNIY2WTciD-17" value="Tags" style="shape=datastore;whiteSpace=wrap;html=1;" parent="1" vertex="1">
          <mxGeometry x="450" y="620" width="70" height="90" as="geometry" />
        </mxCell>
        <mxCell id="uP8z7aU9uXZNIY2WTciD-18" value="Rating" style="shape=datastore;whiteSpace=wrap;html=1;" parent="1" vertex="1">
          <mxGeometry x="560" y="620" width="70" height="90" as="geometry" />
        </mxCell>
        <mxCell id="uP8z7aU9uXZNIY2WTciD-19" value="" style="endArrow=classic;html=1;rounded=0;exitX=0.5;exitY=0;exitDx=0;exitDy=0;entryX=0.442;entryY=1.043;entryDx=0;entryDy=0;entryPerimeter=0;" parent="1" source="uP8z7aU9uXZNIY2WTciD-15" target="uP8z7aU9uXZNIY2WTciD-13" edge="1">
          <mxGeometry width="50" height="50" relative="1" as="geometry">
            <mxPoint x="390" y="500" as="sourcePoint" />
            <mxPoint x="440" y="450" as="targetPoint" />
          </mxGeometry>
        </mxCell>
        <mxCell id="uP8z7aU9uXZNIY2WTciD-20" value="" style="endArrow=classic;html=1;rounded=0;exitX=0.5;exitY=0;exitDx=0;exitDy=0;entryX=0.474;entryY=1.043;entryDx=0;entryDy=0;entryPerimeter=0;" parent="1" source="uP8z7aU9uXZNIY2WTciD-16" target="uP8z7aU9uXZNIY2WTciD-13" edge="1">
          <mxGeometry width="50" height="50" relative="1" as="geometry">
            <mxPoint x="390" y="500" as="sourcePoint" />
            <mxPoint x="440" y="450" as="targetPoint" />
          </mxGeometry>
        </mxCell>
        <mxCell id="uP8z7aU9uXZNIY2WTciD-21" value="" style="endArrow=classic;html=1;rounded=0;entryX=0.5;entryY=1;entryDx=0;entryDy=0;exitX=0.5;exitY=0;exitDx=0;exitDy=0;" parent="1" source="uP8z7aU9uXZNIY2WTciD-17" target="uP8z7aU9uXZNIY2WTciD-13" edge="1">
          <mxGeometry width="50" height="50" relative="1" as="geometry">
            <mxPoint x="390" y="500" as="sourcePoint" />
            <mxPoint x="440" y="450" as="targetPoint" />
          </mxGeometry>
        </mxCell>
        <mxCell id="GXJSvn5DR-mmJm9o6Nx0-5" value="" style="endArrow=classic;startArrow=classic;html=1;rounded=0;exitX=0.5;exitY=0;exitDx=0;exitDy=0;entryX=0.536;entryY=1.043;entryDx=0;entryDy=0;entryPerimeter=0;" edge="1" parent="1" source="uP8z7aU9uXZNIY2WTciD-18" target="uP8z7aU9uXZNIY2WTciD-13">
          <mxGeometry width="50" height="50" relative="1" as="geometry">
            <mxPoint x="390" y="480" as="sourcePoint" />
            <mxPoint x="440" y="430" as="targetPoint" />
          </mxGeometry>
        </mxCell>
        <mxCell id="GXJSvn5DR-mmJm9o6Nx0-6" value="" style="endArrow=classic;startArrow=classic;html=1;rounded=0;exitX=0.5;exitY=0;exitDx=0;exitDy=0;entryX=0.485;entryY=0.99;entryDx=0;entryDy=0;entryPerimeter=0;" edge="1" parent="1" source="uP8z7aU9uXZNIY2WTciD-13" target="uP8z7aU9uXZNIY2WTciD-2">
          <mxGeometry width="50" height="50" relative="1" as="geometry">
            <mxPoint x="390" y="480" as="sourcePoint" />
            <mxPoint x="440" y="430" as="targetPoint" />
          </mxGeometry>
        </mxCell>
        <mxCell id="GXJSvn5DR-mmJm9o6Nx0-7" value="" style="endArrow=classic;startArrow=classic;html=1;rounded=0;exitX=0.5;exitY=0;exitDx=0;exitDy=0;entryX=0.485;entryY=0.99;entryDx=0;entryDy=0;entryPerimeter=0;" edge="1" parent="1">
          <mxGeometry width="50" height="50" relative="1" as="geometry">
            <mxPoint x="413" y="382" as="sourcePoint" />
            <mxPoint x="413" y="341" as="targetPoint" />
          </mxGeometry>
        </mxCell>
        <mxCell id="GXJSvn5DR-mmJm9o6Nx0-8" value="" style="endArrow=classic;startArrow=classic;html=1;rounded=0;exitX=0.5;exitY=0;exitDx=0;exitDy=0;entryX=0.485;entryY=0.99;entryDx=0;entryDy=0;entryPerimeter=0;" edge="1" parent="1">
          <mxGeometry width="50" height="50" relative="1" as="geometry">
            <mxPoint x="411" y="230" as="sourcePoint" />
            <mxPoint x="411" y="189" as="targetPoint" />
          </mxGeometry>
        </mxCell>
        <mxCell id="GXJSvn5DR-mmJm9o6Nx0-9" value="" style="endArrow=classic;startArrow=classic;html=1;rounded=0;exitX=0.5;exitY=0;exitDx=0;exitDy=0;entryX=0.485;entryY=0.99;entryDx=0;entryDy=0;entryPerimeter=0;" edge="1" parent="1">
          <mxGeometry width="50" height="50" relative="1" as="geometry">
            <mxPoint x="409" y="131" as="sourcePoint" />
            <mxPoint x="409" y="90" as="targetPoint" />
          </mxGeometry>
        </mxCell>
      </root>
    </mxGraphModel>
  </diagram>
</mxfile>
